<?xml version="1.0" encoding="iso-8859-1"?>
<!-- Generator: Adobe Illustrator 16.0.0, SVG Export Plug-In . SVG Version: 6.00 Build 0)  -->
<!DOCTYPE svg PUBLIC "-//W3C//DTD SVG 1.1//EN" "http://www.w3.org/Graphics/SVG/1.1/DTD/svg11.dtd">
<svg version="1.1" id="Capa_1" xmlns="http://www.w3.org/2000/svg" xmlns:xlink="http://www.w3.org/1999/xlink" x="0px" y="0px"
	 width="377.337px" height="377.338px" viewBox="0 0 377.337 377.338" style="enable-background:new 0 0 377.337 377.338;"
	 xml:space="preserve">
<g>
	<path d="M301.687,53.505H75.648c-10.876,0-19.725,8.843-19.725,19.713v230.904c0,10.873,8.843,19.722,19.725,19.722h226.039
		c10.873,0,19.722-8.844,19.722-19.722V73.218C321.404,62.348,312.56,53.505,301.687,53.505z M170.808,232.757l-41.437-79.979
		v79979H91.593V80.088h40.649l41.565,80.078V80.088h37.646v152.473l0.131,0.196H170.808z M338.674,0H38.66
		C19.092,0,3.223,15.869,3.223,35.434v306.462c0,19.573,15.869,35.442,35.437,35.442h300.02c19.568,0,35.436-15.869,35.436-35.442
		V35.434C374.115,15.869,358.248,0,338.674,0z M335.378,304.122c0,18.572-15.113,33.691-33.691,33.691H75.648
		c-18.576,0-33.695-15.114-33.695-33.691V73.218c0-18.569,15.114-33.688,33.695-33.688h226.039
		c18.572,0,33.691,15.114,33.691,33.688V304.122z" fill="#042252"/>
</g>
</svg>
